<?xml version="1.0" encoding="UTF-8" standalone="no"?>
<!-- Created with Inkscape (http://www.inkscape.org/) -->

<svg
   xmlns:dc="http://purl.org/dc/elements/1.1/"
   xmlns:cc="http://creativecommons.org/ns#"
   xmlns:rdf="http://www.w3.org/1999/02/22-rdf-syntax-ns#"
   xmlns:svg="http://www.w3.org/2000/svg"
   xmlns="http://www.w3.org/2000/svg"
   xmlns:sodipodi="http://sodipodi.sourceforge.net/DTD/sodipodi-0.dtd"
   xmlns:inkscape="http://www.inkscape.org/namespaces/inkscape"
   version="1.1"
   id="svg2"
   width="1173.3333"
   height="1189.3333"
   viewBox="0 0 1173.3333 1189.3333"
   sodipodi:docname="logo.svg"
   inkscape:version="0.92.4 (5da689c313, 2019-01-14)">
  <metadata
     id="metadata8">
    <rdf:RDF>
      <cc:Work
         rdf:about="">
        <dc:format>image/svg+xml</dc:format>
        <dc:type
           rdf:resource="http://purl.org/dc/dcmitype/StillImage" />
        <dc:title></dc:title>
      </cc:Work>
    </rdf:RDF>
  </metadata>
  <defs
     id="defs6" />
  <sodipodi:namedview
     pagecolor="#ffffff"
     bordercolor="#666666"
     borderopacity="1"
     objecttolerance="10"
     gridtolerance="10"
     guidetolerance="10"
     inkscape:pageopacity="0"
     inkscape:pageshadow="2"
     inkscape:window-width="976"
     inkscape:window-height="646"
     id="namedview4"
     showgrid="false"
     inkscape:zoom="0.36198065"
     inkscape:cx="586.66663"
     inkscape:cy="594.66663"
     inkscape:window-x="132"
     inkscape:window-y="144"
     inkscape:window-maximized="0"
     inkscape:current-layer="svg2" />
  <g
     id="g4520"
     transform="matrix(0.99764554,0,0,0.99535441,0,5.5251559)">
    <path
       style="fill:#f7f8f7;stroke-width:1.33333325"
       d="M 0,594.66665 V 0 H 586.66665 1173.3333 V 594.66665 1189.3333 H 586.66665 0 Z"
       id="path4536"
       inkscape:connector-curvature="0" />
    <path
       style="fill:#f0de1d;stroke-width:1.33333325"
       d="m 335.99999,1184.2777 c -20.56841,-1.7141 -50.88638,-12.2282 -67.1942,-23.3026 -11.355,-7.7111 -28.10616,-22.8046 -34.9494,-31.4909 -12.312,-15.6281 -23.29046,-40.8412 -27.30568,-62.7101 -2.31322,-12.5991 -2.55072,-20.7366 -2.55072,-87.40002 0,-55.39468 -0.39425,-73.90169 -1.6,-75.10744 -1.20836,-1.20836 -20.89437,-1.6 -80.42466,-1.6 -68.202345,0 -79.800585,-0.28631 -86.066663,-2.12461 C 20.930682,896.14788 8.8349777,886.75754 2.7244158,874.77984 0.02146005,869.48162 0,868.05248 0,693.34841 V 517.25728 l 3.8792866,-7.62865 c 2.1336075,-4.19575 5.8836074,-9.5304 8.3333334,-11.85476 6.091127,-5.77943 17.706094,-11.8407 26.047052,-13.59266 4.559092,-0.9576 33.420787,-1.44134 84.446558,-1.4154 57.44584,0.0292 78.0088,-0.36606 79.40699,-1.52645 1.60915,-1.33548 1.88677,-27.12367 1.88677,-175.25534 0,-195.52641 -0.56477,-183.89688 10.24228,-210.902699 6.69518,-16.730605 13.04715,-27.384648 24.09534,-40.414656 14.48289,-17.080821 25.92428,-26.094954 45.7489,-36.043416 15.16789,-7.611605 19.89333,-9.5162895 33.91348,-13.6695022 9.26673,-2.7451029 11.06257,-2.7682646 251.68574,-3.2461218 215.97045,-0.428899 242.82206,-0.2580866 246.66666,1.5691316 2.37284,1.1277326 14.26287,11.5018074 26.42229,23.0534984 12.15943,11.551693 35.55943,33.603077 52,49.003076 16.44057,15.4 38.59196,36.412589 49.22529,46.694649 19.00664,18.37874 63.02403,60.21385 82.66663,78.56824 5.5,5.13928 25.85,24.65757 45.2221,43.37396 19.3721,18.7164 44.5721,43.02048 56,54.00908 11.4279,10.9886 26.3279,25.47521 33.1113,32.19249 l 12.3333,12.21321 -2e-4,359.14085 c -3e-4,391.75219 0.4577,367.74219 -7.4328,389.70799 -8.5858,23.9013 -26.6906,47.9382 -47.9003,63.5947 -13.8232,10.2039 -18.3382,12.8458 -30.4807,17.835 -19.9066,8.1794 -29.7025,10.1643 -53.5193,10.8443 -23.3176,0.6658 -690.42,1.4016 -698.00001,0.7699 z m 358.20318,-304.13428 221.5365,-0.81011 5.79682,-4.16801 c 3.18824,-2.29242 7.59682,-7.04598 9.79682,-10.56347 l 4,-6.39544 -0.0876,-162.76988 c -0.0483,-89.52342 -0.51262,-164.95175 -1.03203,-167.61852 -1.17416,-6.02843 -9.95123,-16.23552 -17.37604,-20.20708 l -5.50433,-2.94426 -433.88578,0.34923 -433.885773,0.34923 -5.949903,2.97153 c -7.333486,3.66252 -15.795357,13.04385 -17.588624,19.49979 -1.8414,6.62922 -1.8414,323.03121 0,329.66044 2.570877,9.25541 14.395869,20.09492 24.643435,22.58968 4.763292,1.15961 339.950085,1.18896 649.536505,0.0568 z M 104.88889,817.77775 c -1.95188,-1.95187 -0.48532,-6.74519 3.80748,-12.44444 4.86617,-6.46048 53.34231,-78.84656 67.31577,-100.518 l 8.50129,-13.18466 -3.12652,-5.482 c -5.34677,-9.37499 -22.84427,-36.56391 -62.03452,-96.39385 -5.9138,-9.02832 -8.74765,-14.61336 -8.45668,-16.66667 l 0.43762,-3.08815 32.7288,-0.35604 32.72878,-0.35602 3.376,3.68936 c 3.09051,3.37737 9.45378,13.64222 26.91466,43.41712 9.20233,15.69213 15.43152,24.93892 16.80034,24.93892 1.17415,0 6.44562,-7.7741 8.39223,-12.37644 0.55283,-1.30704 5.51679,-9.23775 11.031,-17.62379 5.51423,-8.38605 13.05093,-20.36891 16.74823,-26.62856 3.6973,-6.25967 8.11004,-12.29044 9.80609,-13.40175 2.57177,-1.68508 8.152,-1.96094 33.61213,-1.66166 l 30.5284,0.35886 0.39736,3.4124 c 0.28053,2.40914 -2.46352,7.77978 -9.33333,18.26715 -5.35188,8.17012 -15.35416,23.73453 -22.22727,34.5876 -6.87312,10.85307 -18.42312,29.02684 -25.66666,40.38614 -7.24356,11.35931 -13.1701,21.87243 -13.1701,23.36247 0,1.49005 5.92462,11.69608 13.16582,22.68005 7.2412,10.98398 24.94119,37.77383 39.33333,59.53302 14.39213,21.75918 26.16752,40.38918 26.16752,41.39999 0,4.63195 -2.76788,5.03784 -34.35432,5.03784 -17.64717,0 -32.20549,-0.56256 -33.57884,-1.29756 -1.33348,-0.71366 -7.37748,-9.26366 -13.43112,-19 -6.05363,-9.73634 -13.66307,-21.90244 -16.90985,-27.03577 -3.24679,-5.13333 -8.84276,-13.98333 -12.43551,-19.66666 -3.59273,-5.68334 -7.30283,-10.32118 -8.24464,-10.30631 -2.18104,0.0344 -19.72423,26.36039 -41.29776,61.97297 -9.94177,16.41141 -6.82424,15.33333 -44.34012,15.33333 -17.7632,0 -32.69673,-0.4 -33.18561,-0.88889 z m 265.31775,-1.54943 c -2.01869,-2.23062 -2.20665,-12.59708 -2.20665,-121.70331 0,-105.78619 0.23457,-119.59992 2.0756,-122.22835 2.05033,-2.92725 2.47972,-2.96334 35.25899,-2.96334 32.54669,0 33.24662,0.0576 36.48011,3 2.00954,1.82865 8.05874,14.1928 15.493,31.66666 14.42119,33.89623 12.71212,29.9833 21.95076,50.25652 4.07451,8.94108 7.4082,16.61436 7.4082,17.05173 0,0.43736 2.1835,5.57194 4.85222,11.41015 3.13934,6.86779 5.6104,10.61408 7,10.61253 1.46404,-10e-4 4.44666,-5.2013 9.3691,-16.33333 3.97172,-8.98201 11.55534,-25.93093 16.85247,-37.66426 10.19124,-22.57394 16.63208,-37.2163 24.04662,-54.66667 6.86122,-16.14807 4.59267,-15.33333 42.69396,-15.33333 30.74119,0 32.66475,0.14578 35.18563,2.66666 2.62684,2.62684 2.66667,4.44444 2.66667,121.70332 0,105.57952 -0.23466,119.37166 -2.0756,122 -2.03144,2.90029 -2.66412,2.96334 -29.73334,2.96334 -19.7338,0 -28.11613,-0.4584 -29.25773,-1.6 -1.20365,-1.20365 -1.6,-18.87408 -1.6,-71.33333 0,-39.11344 -0.51377,-69.73333 -1.17008,-69.73333 -1.84073,0 -3.67365,2.88508 -5.50605,8.66667 -0.92968,2.93333 -3.3871,8.72506 -5.46092,12.8705 -2.07383,4.14544 -7.33578,16.14544 -11.69323,26.66667 -15.68629,37.8752 -20.48174,48.51149 -23.20238,51.46282 -2.60299,2.82371 -3.81339,3 -20.59675,3 -17.20995,0 -17.93356,-0.11333 -20.76759,-3.2522 -2.58952,-2.86809 -9.61452,-18.10307 -23.70769,-51.41446 -2.32689,-5.5 -6.17455,-14.2 -8.55033,-19.33333 -2.37579,-5.13334 -5.15032,-11.38339 -6.16563,-13.889 -3.73437,-9.21584 -7.21403,-15.21182 -8.51268,-14.66867 -0.86445,0.36156 -1.33333,24.74956 -1.33333,69.35136 0,56.34769 -0.33107,69.19285 -1.82992,71 -1.5923,1.9198 -5.33143,2.2063 -28.79336,2.2063 -24.4284,0 -27.17088,-0.22924 -29.17007,-2.43832 z m 304.46001,-0.22834 c -2.62694,-2.62694 -2.66667,-4.44444 -2.66667,-122 0,-117.55556 0.0397,-119.37306 2.66667,-122 2.49132,-2.49132 4.44444,-2.66666 29.70332,-2.66666 22.31233,0 27.55446,0.36269 30,2.0756 l 2.96334,2.07561 v 92.99105 c 0,70.54861 0.38615,93.37721 1.6,94.59107 1.19272,1.19272 15.59802,1.6 56.59107,1.6 54.66577,0 55.00286,0.0169 56.98809,2.85117 2.92565,4.17696 1.54156,48.99566 -1.58988,51.48216 -1.63,1.29429 -21.25632,1.66666 -87.84412,1.66666 -83.96738,0 -85.80045,-0.0553 -88.41182,-2.66666 z"
       id="path4534"
       inkscape:connector-curvature="0" />
    <path
       style="fill:#23c1d4;stroke-width:1.33333325"
       d="m 335.99999,1184.2777 c -20.56841,-1.7141 -50.88638,-12.2282 -67.1942,-23.3026 -11.355,-7.7111 -28.10616,-22.8046 -34.9494,-31.4909 -12.312,-15.6281 -23.29046,-40.8412 -27.30568,-62.7101 -2.31322,-12.5991 -2.55072,-20.7366 -2.55072,-87.40002 0,-55.39468 -0.39425,-73.90169 -1.6,-75.10744 -1.20836,-1.20836 -20.89437,-1.6 -80.42466,-1.6 -68.202345,0 -79.800585,-0.28631 -86.066663,-2.12461 C 20.930682,896.14788 8.8349777,886.75754 2.7244158,874.77984 0.02146005,869.48162 0,868.05248 0,693.34841 V 517.25728 l 3.8792866,-7.62865 c 2.1336075,-4.19575 5.8836074,-9.5304 8.3333334,-11.85476 6.091127,-5.77943 17.706094,-11.8407 26.047052,-13.59266 4.559092,-0.9576 33.420787,-1.44134 84.446558,-1.4154 57.44584,0.0292 78.0088,-0.36606 79.40699,-1.52645 1.60915,-1.33548 1.88677,-27.12367 1.88677,-175.25534 0,-195.52641 -0.56477,-183.89688 10.24228,-210.902699 6.69518,-16.730605 13.04715,-27.384648 24.09534,-40.414656 14.48289,-17.080821 25.92428,-26.094954 45.7489,-36.043416 15.16789,-7.611605 19.89333,-9.5162895 33.91348,-13.6695022 9.26673,-2.7451029 11.06257,-2.7682646 251.68574,-3.2461218 215.97045,-0.428899 242.82206,-0.2580866 246.66666,1.5691316 2.37284,1.1277326 14.26287,11.5018074 26.42229,23.0534984 12.15943,11.551693 35.55943,33.603077 52,49.003076 16.44057,15.4 38.59196,36.412589 49.22529,46.694649 19.00664,18.37874 63.02403,60.21385 82.66663,78.56824 5.5,5.13928 25.85,24.65757 45.2221,43.37396 19.3721,18.7164 44.5721,43.02048 56,54.00908 11.4279,10.9886 26.3279,25.47521 33.1113,32.19249 l 12.3333,12.21321 -2e-4,359.14085 c -3e-4,391.75219 0.4577,367.74219 -7.4328,389.70799 -8.5858,23.9013 -26.6906,47.9382 -47.9003,63.5947 -13.8232,10.2039 -18.3382,12.8458 -30.4807,17.835 -19.9066,8.1794 -29.7025,10.1643 -53.5193,10.8443 -23.3176,0.6658 -690.42,1.4016 -698.00001,0.7699 z m 639.33332,-33.9466 c 90.23509,-0.3735 81.32289,0.61 107.06549,-11.8147 11.7889,-5.6898 15.3985,-8.2767 25.5067,-18.2795 6.4759,-6.4085 14.194,-15.3953 17.1512,-19.9708 6.5535,-10.1394 12.7984,-26.9643 14.7929,-39.8549 2.2024,-14.2335 2.0911,-379.27051 -0.1164,-381.47789 -2.0101,-2.0101 -176.56553,-2.29704 -179.73329,-0.29544 -1.73514,1.09638 -2.0883,13.3313 -2.66667,92.38444 l -0.66667,91.12071 -4.37354,8.61469 c -5.60392,11.0382 -13.31128,20.02279 -21.08388,24.57782 -12.85078,7.53107 1.80705,7.23411 -359.57557,7.28459 l -333.03292,0.0465 -0.967,3 c -0.53185,1.65 -0.64557,37.8 -0.25273,80.33333 0.70637,76.47935 0.74857,77.43645 3.82066,86.66665 5.9826,17.975 19.38608,40.1833 30.29166,50.1904 10.35472,9.5016 38.78966,23.9481 51.88779,26.3619 4.37376,0.806 10.95228,1.6114 14.61895,1.7899 7.55725,0.3678 515.14063,-0.1719 637.33332,-0.6777 z m -281.13014,-270.18768 221.5365,-0.81011 5.79682,-4.16801 c 3.18824,-2.29242 7.59682,-7.04598 9.79682,-10.56347 l 4,-6.39544 -0.0876,-162.76988 c -0.0483,-89.52342 -0.51262,-164.95175 -1.03203,-167.61852 -1.17416,-6.02843 -9.95123,-16.23552 -17.37604,-20.20708 l -5.50433,-2.94426 -433.88578,0.34923 -433.885773,0.34923 -5.949903,2.97153 c -7.333486,3.66252 -15.795357,13.04385 -17.588624,19.49979 -1.8414,6.62922 -1.8414,323.03121 0,329.66044 2.570877,9.25541 14.395869,20.09492 24.643435,22.58968 4.763292,1.15961 339.950085,1.18896 649.536505,0.0568 z M 104.88889,817.77775 c -1.95188,-1.95187 -0.48532,-6.74519 3.80748,-12.44444 4.86617,-6.46048 53.34231,-78.84656 67.31577,-100.518 l 8.50129,-13.18466 -3.12652,-5.482 c -5.34677,-9.37499 -22.84427,-36.56391 -62.03452,-96.39385 -5.9138,-9.02832 -8.74765,-14.61336 -8.45668,-16.66667 l 0.43762,-3.08815 32.7288,-0.35604 32.72878,-0.35602 3.376,3.68936 c 3.09051,3.37737 9.45378,13.64222 26.91466,43.41712 9.20233,15.69213 15.43152,24.93892 16.80034,24.93892 1.17415,0 6.44562,-7.7741 8.39223,-12.37644 0.55283,-1.30704 5.51679,-9.23775 11.031,-17.62379 5.51423,-8.38605 13.05093,-20.36891 16.74823,-26.62856 3.6973,-6.25967 8.11004,-12.29044 9.80609,-13.40175 2.57177,-1.68508 8.152,-1.96094 33.61213,-1.66166 l 30.5284,0.35886 0.39736,3.4124 c 0.28053,2.40914 -2.46352,7.77978 -9.33333,18.26715 -5.35188,8.17012 -15.35416,23.73453 -22.22727,34.5876 -6.87312,10.85307 -18.42312,29.02684 -25.66666,40.38614 -7.24356,11.35931 -13.1701,21.87243 -13.1701,23.36247 0,1.49005 5.92462,11.69608 13.16582,22.68005 7.2412,10.98398 24.94119,37.77383 39.33333,59.53302 14.39213,21.75918 26.16752,40.38918 26.16752,41.39999 0,4.63195 -2.76788,5.03784 -34.35432,5.03784 -17.64717,0 -32.20549,-0.56256 -33.57884,-1.29756 -1.33348,-0.71366 -7.37748,-9.26366 -13.43112,-19 -6.05363,-9.73634 -13.66307,-21.90244 -16.90985,-27.03577 -3.24679,-5.13333 -8.84276,-13.98333 -12.43551,-19.66666 -3.59273,-5.68334 -7.30283,-10.32118 -8.24464,-10.30631 -2.18104,0.0344 -19.72423,26.36039 -41.29776,61.97297 -9.94177,16.41141 -6.82424,15.33333 -44.34012,15.33333 -17.7632,0 -32.69673,-0.4 -33.18561,-0.88889 z m 265.31775,-1.54943 c -2.01869,-2.23062 -2.20665,-12.59708 -2.20665,-121.70331 0,-105.78619 0.23457,-119.59992 2.0756,-122.22835 2.05033,-2.92725 2.47972,-2.96334 35.25899,-2.96334 32.54669,0 33.24662,0.0576 36.48011,3 2.00954,1.82865 8.05874,14.1928 15.493,31.66666 14.42119,33.89623 12.71212,29.9833 21.95076,50.25652 4.07451,8.94108 7.4082,16.61436 7.4082,17.05173 0,0.43736 2.1835,5.57194 4.85222,11.41015 3.13934,6.86779 5.6104,10.61408 7,10.61253 1.46404,-10e-4 4.44666,-5.2013 9.3691,-16.33333 3.97172,-8.98201 11.55534,-25.93093 16.85247,-37.66426 10.19124,-22.57394 16.63208,-37.2163 24.04662,-54.66667 6.86122,-16.14807 4.59267,-15.33333 42.69396,-15.33333 30.74119,0 32.66475,0.14578 35.18563,2.66666 2.62684,2.62684 2.66667,4.44444 2.66667,121.70332 0,105.57952 -0.23466,119.37166 -2.0756,122 -2.03144,2.90029 -2.66412,2.96334 -29.73334,2.96334 -19.7338,0 -28.11613,-0.4584 -29.25773,-1.6 -1.20365,-1.20365 -1.6,-18.87408 -1.6,-71.33333 0,-39.11344 -0.51377,-69.73333 -1.17008,-69.73333 -1.84073,0 -3.67365,2.88508 -5.50605,8.66667 -0.92968,2.93333 -3.3871,8.72506 -5.46092,12.8705 -2.07383,4.14544 -7.33578,16.14544 -11.69323,26.66667 -15.68629,37.8752 -20.48174,48.51149 -23.20238,51.46282 -2.60299,2.82371 -3.81339,3 -20.59675,3 -17.20995,0 -17.93356,-0.11333 -20.76759,-3.2522 -2.58952,-2.86809 -9.61452,-18.10307 -23.70769,-51.41446 -2.32689,-5.5 -6.17455,-14.2 -8.55033,-19.33333 -2.37579,-5.13334 -5.15032,-11.38339 -6.16563,-13.889 -3.73437,-9.21584 -7.21403,-15.21182 -8.51268,-14.66867 -0.86445,0.36156 -1.33333,24.74956 -1.33333,69.35136 0,56.34769 -0.33107,69.19285 -1.82992,71 -1.5923,1.9198 -5.33143,2.2063 -28.79336,2.2063 -24.4284,0 -27.17088,-0.22924 -29.17007,-2.43832 z m 304.46001,-0.22834 c -2.62694,-2.62694 -2.66667,-4.44444 -2.66667,-122 0,-117.55556 0.0397,-119.37306 2.66667,-122 2.49132,-2.49132 4.44444,-2.66666 29.70332,-2.66666 22.31233,0 27.55446,0.36269 30,2.0756 l 2.96334,2.07561 v 92.99105 c 0,70.54861 0.38615,93.37721 1.6,94.59107 1.19272,1.19272 15.59802,1.6 56.59107,1.6 54.66577,0 55.00286,0.0169 56.98809,2.85117 2.92565,4.17696 1.54156,48.99566 -1.58988,51.48216 -1.63,1.29429 -21.25632,1.66666 -87.84412,1.66666 -83.96738,0 -85.80045,-0.0553 -88.41182,-2.66666 z"
       id="path4532"
       inkscape:connector-curvature="0" />
    <path
       style="fill:#26bbd3;stroke-width:1.33333325"
       d="m 335.99999,1184.2777 c -20.56841,-1.7141 -50.88638,-12.2282 -67.1942,-23.3026 -11.355,-7.7111 -28.10616,-22.8046 -34.9494,-31.4909 -12.312,-15.6281 -23.29046,-40.8412 -27.30568,-62.7101 -2.31322,-12.5991 -2.55072,-20.7366 -2.55072,-87.40002 0,-55.39468 -0.39425,-73.90169 -1.6,-75.10744 -1.20836,-1.20836 -20.89437,-1.6 -80.42466,-1.6 -68.202345,0 -79.800585,-0.28631 -86.066663,-2.12461 C 20.930682,896.14788 8.8349777,886.75754 2.7244158,874.77984 0.02146005,869.48162 0,868.05248 0,693.34841 V 517.25728 l 3.8792866,-7.62865 c 2.1336075,-4.19575 5.8836074,-9.5304 8.3333334,-11.85476 6.091127,-5.77943 17.706094,-11.8407 26.047052,-13.59266 4.559092,-0.9576 33.420787,-1.44134 84.446558,-1.4154 57.44584,0.0292 78.0088,-0.36606 79.40699,-1.52645 1.60915,-1.33548 1.88677,-27.12367 1.88677,-175.25534 0,-195.52641 -0.56477,-183.89688 10.24228,-210.902699 6.69518,-16.730605 13.04715,-27.384648 24.09534,-40.414656 14.48289,-17.080821 25.92428,-26.094954 45.7489,-36.043416 15.16789,-7.611605 19.89333,-9.5162895 33.91348,-13.6695022 9.26673,-2.7451029 11.06257,-2.7682646 251.68574,-3.2461218 215.97045,-0.428899 242.82206,-0.2580866 246.66666,1.5691316 2.37284,1.1277326 14.26287,11.5018074 26.42229,23.0534984 12.15943,11.551693 35.55943,33.603077 52,49.003076 16.44057,15.4 38.59196,36.412589 49.22529,46.694649 19.00664,18.37874 63.02403,60.21385 82.66663,78.56824 5.5,5.13928 25.85,24.65757 45.2221,43.37396 19.3721,18.7164 44.5721,43.02048 56,54.00908 11.4279,10.9886 26.3279,25.47521 33.1113,32.19249 l 12.3333,12.21321 -2e-4,359.14085 c -3e-4,391.75219 0.4577,367.74219 -7.4328,389.70799 -8.5858,23.9013 -26.6906,47.9382 -47.9003,63.5947 -13.8232,10.2039 -18.3382,12.8458 -30.4807,17.835 -19.9066,8.1794 -29.7025,10.1643 -53.5193,10.8443 -23.3176,0.6658 -690.42,1.4016 -698.00001,0.7699 z m 639.33332,-33.9466 c 90.23509,-0.3735 81.32289,0.61 107.06549,-11.8147 11.7889,-5.6898 15.3985,-8.2767 25.5067,-18.2795 6.4759,-6.4085 14.194,-15.3953 17.1512,-19.9708 6.5535,-10.1394 12.7984,-26.9643 14.7929,-39.8549 2.2024,-14.2335 2.0911,-379.27051 -0.1164,-381.47789 -2.0101,-2.0101 -176.56553,-2.29704 -179.73329,-0.29544 -1.73514,1.09638 -2.0883,13.3313 -2.66667,92.38444 l -0.66667,91.12071 -4.37354,8.61469 c -5.60392,11.0382 -13.31128,20.02279 -21.08388,24.57782 -12.85078,7.53107 1.80705,7.23411 -359.57557,7.28459 l -333.03292,0.0465 -0.967,3 c -0.53185,1.65 -0.64557,37.8 -0.25273,80.33333 0.70637,76.47935 0.74857,77.43645 3.82066,86.66665 5.9826,17.975 19.38608,40.1833 30.29166,50.1904 10.35472,9.5016 38.78966,23.9481 51.88779,26.3619 4.37376,0.806 10.95228,1.6114 14.61895,1.7899 7.55725,0.3678 515.14063,-0.1719 637.33332,-0.6777 z m -281.13014,-270.18768 221.5365,-0.81011 5.79682,-4.16801 c 3.18824,-2.29242 7.59682,-7.04598 9.79682,-10.56347 l 4,-6.39544 -0.0876,-162.76988 c -0.0483,-89.52342 -0.51262,-164.95175 -1.03203,-167.61852 -1.17416,-6.02843 -9.95123,-16.23552 -17.37604,-20.20708 l -5.50433,-2.94426 -433.88578,0.34923 -433.885773,0.34923 -5.949903,2.97153 c -7.333486,3.66252 -15.795357,13.04385 -17.588624,19.49979 -1.8414,6.62922 -1.8414,323.03121 0,329.66044 2.570877,9.25541 14.395869,20.09492 24.643435,22.58968 4.763292,1.15961 339.950085,1.18896 649.536505,0.0568 z M 104.88889,817.77775 c -1.95188,-1.95187 -0.48532,-6.74519 3.80748,-12.44444 4.86617,-6.46048 53.34231,-78.84656 67.31577,-100.518 l 8.50129,-13.18466 -3.12652,-5.482 c -5.34677,-9.37499 -22.84427,-36.56391 -62.03452,-96.39385 -5.9138,-9.02832 -8.74765,-14.61336 -8.45668,-16.66667 l 0.43762,-3.08815 32.7288,-0.35604 32.72878,-0.35602 3.376,3.68936 c 3.09051,3.37737 9.45378,13.64222 26.91466,43.41712 9.20233,15.69213 15.43152,24.93892 16.80034,24.93892 1.17415,0 6.44562,-7.7741 8.39223,-12.37644 0.55283,-1.30704 5.51679,-9.23775 11.031,-17.62379 5.51423,-8.38605 13.05093,-20.36891 16.74823,-26.62856 3.6973,-6.25967 8.11004,-12.29044 9.80609,-13.40175 2.57177,-1.68508 8.152,-1.96094 33.61213,-1.66166 l 30.5284,0.35886 0.39736,3.4124 c 0.28053,2.40914 -2.46352,7.77978 -9.33333,18.26715 -5.35188,8.17012 -15.35416,23.73453 -22.22727,34.5876 -6.87312,10.85307 -18.42312,29.02684 -25.66666,40.38614 -7.24356,11.35931 -13.1701,21.87243 -13.1701,23.36247 0,1.49005 5.92462,11.69608 13.16582,22.68005 7.2412,10.98398 24.94119,37.77383 39.33333,59.53302 14.39213,21.75918 26.16752,40.38918 26.16752,41.39999 0,4.63195 -2.76788,5.03784 -34.35432,5.03784 -17.64717,0 -32.20549,-0.56256 -33.57884,-1.29756 -1.33348,-0.71366 -7.37748,-9.26366 -13.43112,-19 -6.05363,-9.73634 -13.66307,-21.90244 -16.90985,-27.03577 -3.24679,-5.13333 -8.84276,-13.98333 -12.43551,-19.66666 -3.59273,-5.68334 -7.30283,-10.32118 -8.24464,-10.30631 -2.18104,0.0344 -19.72423,26.36039 -41.29776,61.97297 -9.94177,16.41141 -6.82424,15.33333 -44.34012,15.33333 -17.7632,0 -32.69673,-0.4 -33.18561,-0.88889 z m 265.31775,-1.54943 c -2.01869,-2.23062 -2.20665,-12.59708 -2.20665,-121.70331 0,-105.78619 0.23457,-119.59992 2.0756,-122.22835 2.05033,-2.92725 2.47972,-2.96334 35.25899,-2.96334 32.54669,0 33.24662,0.0576 36.48011,3 2.00954,1.82865 8.05874,14.1928 15.493,31.66666 14.42119,33.89623 12.71212,29.9833 21.95076,50.25652 4.07451,8.94108 7.4082,16.61436 7.4082,17.05173 0,0.43736 2.1835,5.57194 4.85222,11.41015 3.13934,6.86779 5.6104,10.61408 7,10.61253 1.46404,-10e-4 4.44666,-5.2013 9.3691,-16.33333 3.97172,-8.98201 11.55534,-25.93093 16.85247,-37.66426 10.19124,-22.57394 16.63208,-37.2163 24.04662,-54.66667 6.86122,-16.14807 4.59267,-15.33333 42.69396,-15.33333 30.74119,0 32.66475,0.14578 35.18563,2.66666 2.62684,2.62684 2.66667,4.44444 2.66667,121.70332 0,105.57952 -0.23466,119.37166 -2.0756,122 -2.03144,2.90029 -2.66412,2.96334 -29.73334,2.96334 -19.7338,0 -28.11613,-0.4584 -29.25773,-1.6 -1.20365,-1.20365 -1.6,-18.87408 -1.6,-71.33333 0,-39.11344 -0.51377,-69.73333 -1.17008,-69.73333 -1.84073,0 -3.67365,2.88508 -5.50605,8.66667 -0.92968,2.93333 -3.3871,8.72506 -5.46092,12.8705 -2.07383,4.14544 -7.33578,16.14544 -11.69323,26.66667 -15.68629,37.8752 -20.48174,48.51149 -23.20238,51.46282 -2.60299,2.82371 -3.81339,3 -20.59675,3 -17.20995,0 -17.93356,-0.11333 -20.76759,-3.2522 -2.58952,-2.86809 -9.61452,-18.10307 -23.70769,-51.41446 -2.32689,-5.5 -6.17455,-14.2 -8.55033,-19.33333 -2.37579,-5.13334 -5.15032,-11.38339 -6.16563,-13.889 -3.73437,-9.21584 -7.21403,-15.21182 -8.51268,-14.66867 -0.86445,0.36156 -1.33333,24.74956 -1.33333,69.35136 0,56.34769 -0.33107,69.19285 -1.82992,71 -1.5923,1.9198 -5.33143,2.2063 -28.79336,2.2063 -24.4284,0 -27.17088,-0.22924 -29.17007,-2.43832 z m 304.46001,-0.22834 c -2.62694,-2.62694 -2.66667,-4.44444 -2.66667,-122 0,-117.55556 0.0397,-119.37306 2.66667,-122 2.49132,-2.49132 4.44444,-2.66666 29.70332,-2.66666 22.31233,0 27.55446,0.36269 30,2.0756 l 2.96334,2.07561 v 92.99105 c 0,70.54861 0.38615,93.37721 1.6,94.59107 1.19272,1.19272 15.59802,1.6 56.59107,1.6 54.66577,0 55.00286,0.0169 56.98809,2.85117 2.92565,4.17696 1.54156,48.99566 -1.58988,51.48216 -1.63,1.29429 -21.25632,1.66666 -87.84412,1.66666 -83.96738,0 -85.80045,-0.0553 -88.41182,-2.66666 z m 379.66665,-144.40255 83,0.0799 0.03,-50.17202 c 0.016,-27.5946 0.1664,-93.11441 0.3334,-145.59957 l 0.3036,-95.42756 -124.6667,0.0943 -124.66667,0.0943 -5.28192,-3 c -2.90506,-1.65 -6.38485,-3 -7.73288,-3 -1.34803,0 -4.07116,-0.82905 -6.05141,-1.84233 -1.98026,-1.01329 -6.30046,-2.28996 -9.60046,-2.83704 -3.3,-0.54709 -7.43092,-2.11804 -9.17981,-3.491 -1.74888,-1.37299 -3.69808,-2.49632 -4.33153,-2.49632 -4.14064,0 -37.5237,-32.97815 -43.20736,-42.68331 -0.76196,-1.30109 -2.11515,-3.24492 -3.00707,-4.31961 -2.37739,-2.86459 -6.88391,-16.12525 -9.62784,-28.33041 -1.31892,-5.86667 -3.05435,-13.06667 -3.85649,-16 -1.00823,-3.68692 -1.41612,-40.73135 -1.32132,-120 l 0.13713,-114.666661 -226.35542,0.265919 -226.35542,0.265918 -11.36059,3.001151 c -7.84161,2.071536 -13.03949,4.354904 -16.78074,7.371584 -2.9811,2.403738 -7.67018,5.348705 -10.42018,6.54437 -5.16145,2.244133 -6.98233,5.380467 -2.43309,4.190812 3.27641,-0.856801 2.22293,2.510376 -1.39044,4.444197 -1.9509,1.044095 -2.5098,0.88739 -2.5098,-0.703706 0,-5.879912 -14.60872,3.550033 -24.27548,15.669844 -4.14808,5.20071 -6.82844,13.23182 -5.06634,15.180225 2.13796,2.364019 2.69349,8.293487 0.87749,9.365797 -0.99717,0.5888 -2.57563,2.52125 -3.50769,4.29432 l -1.69464,3.22376 -1.5952,-2.98065 c -1.8086,-3.37941 -3.66176,-2.04771 -5.38046,3.86646 -0.53277,1.83333 -1.70985,4.53333 -2.61574,6 -0.90588,1.46666 -2.02894,4.61927 -2.49566,7.0058 -0.90501,4.62762 -1.43086,352.25405 -0.5342,353.15071 0.29198,0.29197 151.87969,0.52388 336.86159,0.51534 289.88709,-0.0133 336.82065,0.24906 339.87853,1.90042 1.95128,1.05376 8.04778,4.01256 13.54778,6.5751 12.38178,5.76891 17.30264,10.87951 22.00419,22.85262 2.01573,5.13333 4.48941,10.51684 5.49707,11.96334 1.4999,2.15316 1.83208,15.95268 1.83208,76.11111 0,40.4146 0.42108,73.90218 0.93573,74.41683 0.51465,0.51466 2.76465,0.5061 5,-0.0191 2.23535,-0.52511 41.41426,-0.91878 87.06426,-0.87482 z M 1111,340.47752 c 2.75,-0.45454 5,-1.47908 5,-2.27673 0,-1.93328 -13.4961,-15.53413 -15.4145,-15.53413 -0.8281,0 -2.5915,-1.2 -3.9189,-2.66667 -1.3273,-1.46667 -3.3334,-2.66667 -4.458,-2.66667 -1.552,0 -1.3415,0.65526 0.8733,2.71862 3.7061,3.45278 3.6632,4.19128 -0.5338,9.17908 -2.8808,3.42368 -4.4118,4.1023 -9.2546,4.1023 -5.1347,0 -7.8763,-1.45793 -7.9398,-4.22222 -0.055,-2.40896 -1.8827,-2.31208 -2.6613,0.1411 -0.4864,1.53258 -1.4428,2.44139 -2.1254,2.01956 -0.7308,-0.45168 -0.5647,-1.96686 0.4042,-3.68602 2.5386,-4.50467 2.341,-7.58575 -0.4866,-7.58575 -1.3666,0 -2.4846,0.9 -2.4846,2 0,1.1 -0.8524,2 -1.8941,2 -1.0417,0 -2.2894,1.8 -2.7726,4 -0.7673,3.49361 -1.4559,4 -5.4393,4 -2.9374,0 -4.4421,0.5932 -4.2274,1.66667 0.2032,1.01586 -0.9682,1.59012 -3,1.47062 -9.6493,-0.56748 -27.5379,-0.56552 -82.66663,0.009 -38.29889,0.39918 -64.51282,0.11946 -71.09837,-0.75867 -11.47955,-1.53071 -15.85773,-0.15536 -10.04477,3.15543 2.51882,1.4346 19.56304,1.8567 85.80981,2.12508 45.46666,0.18418 84.46666,0.53817 86.66666,0.78661 7.4256,0.83859 46.6264,0.8558 51.6667,0.0227 z m -232.33336,-9.81086 c 0,-0.73334 -1.65,-1.32415 -3.66666,-1.31292 -2.85726,0.0159 -3.22516,0.30574 -1.66667,1.31292 2.60871,1.68588 5.33333,1.68588 5.33333,0 z m -10.11126,-5.80916 c -0.46239,-1.20496 -1.67651,-2.19084 -2.69806,-2.19084 -1.02153,0 -1.85734,-0.7 -1.85734,-1.55556 0,-0.85555 -0.40999,-1.14556 -0.9111,-0.64446 -1.09332,1.09331 -4.42224,-6.39904 -4.42224,-9.95306 0,-1.38247 -0.87442,-2.51359 -1.94316,-2.51359 -1.06873,0 -3.61873,-2.14161 -5.66666,-4.75913 -4.81544,-6.15479 -10.93083,-9.58287 -12.5467,-7.03327 -1.82045,2.8724 -1.4083,4.41171 2.65766,9.92568 5.65761,7.67251 12.18368,13.46108 17.8322,15.81704 2.75,1.147 5,2.63343 5,3.30315 0,1.05436 4.01194,2.66928 5.03138,2.02528 0.20059,-0.12667 -0.0136,-1.21628 -0.47598,-2.42124 z m 181.22862,-0.85751 c 2.1692,-2.29824 5.1454,-4 6.9957,-4 1.7711,0 4.5328,-1.31251 6.1369,-2.91667 1.8772,-1.87718 3.1048,-2.35238 3.4445,-1.33333 0.5705,1.71156 3.0744,2.23056 2.8143,0.58333 -0.5715,-3.61953 0.7685,-5.81637 5.1579,-8.45613 2.75,-1.65383 5.2223,-3.17509 5.4941,-3.38059 1.2789,-0.96717 -9.1657,-12.11286 -17.6763,-18.86279 -5.2165,-4.1373 -17.8845,-15.9894 -28.1511,-26.33803 -20.5754,-20.73965 -53.77183,-52.55903 -76.3664,-73.19859 -4.85489,-4.43481 -7.40785,-3.76444 -3.27844,0.86088 1.49368,1.67306 5.25123,5.89192 8.35011,9.37526 3.09888,3.48333 6.49333,6.33333 7.54321,6.33333 1.04988,0 1.56475,0.5568 1.14416,1.23733 -0.4206,0.68055 0.32628,1.58362 1.65975,2.00684 1.33345,0.42322 4.0716,3.37535 6.08478,6.5603 2.01318,3.18493 5.44758,7.11216 7.63198,8.72716 4.42376,3.27062 4.08301,5.46837 -0.84787,5.46837 -2.03377,0 -3.25464,0.76593 -3.25464,2.04184 0,2.79111 3.59557,3.95365 6.01577,1.94507 4.02835,-3.34323 13.16699,2.90601 23.02209,15.74313 1.8564,2.41819 4.1185,4.11153 5.0268,3.76299 2.0737,-0.79578 6.6452,4.09888 7.9453,8.50697 0.5407,1.83333 1.5831,4.08333 2.3165,5 0.9746,1.21819 0.6412,1.66667 -1.2391,1.66667 -1.5613,0 -3.1502,-1.44134 -4.042,-3.66667 -1.416,-3.53344 -1.4532,-3.54555 -1.0231,-0.33333 0.2454,1.83333 0.5544,3.63333 0.6866,4 0.1323,0.36666 0.1418,2.21897 0.021,4.11624 -0.2204,3.4723 -0.1186,3.51186 6.8466,2.66153 0.5006,-0.0611 1.2734,-1.25568 1.7174,-2.6546 0.444,-1.39892 1.7156,-2.89204 2.8258,-3.31805 1.1175,-0.42882 1.6642,-0.20138 1.2249,0.50953 -0.4365,0.70625 1.7823,2.52945 4.9307,4.05153 5.7156,2.76315 15.7244,13.65859 15.7244,17.1172 0,1.2031 -0.9616,1.57616 -2.814,1.09174 -1.9748,-0.51642 -2.9994,-0.0273 -3.4354,1.64009 -0.443,1.69391 -1.5442,2.19956 -3.836,1.76145 -3.5644,-0.68137 -5.9106,2.83426 -3.7934,5.68421 5.7331,7.71732 6.241,8.84367 4.6882,10.39644 -1.2272,1.22719 -1.8263,1.19995 -2.6422,-0.12013 -0.7991,-1.29295 -1.9531,-1.36576 -4.756,-0.30009 -3.0747,1.169 -3.4232,1.7418 -2.0595,3.385 0.9028,1.08785 2.4681,1.9779 3.4783,1.9779 1.1485,0 1.8367,1.48634 1.8367,3.96667 0,3.69629 -0.2726,3.91213 -4,3.16667 -4.3267,-0.86534 -4.9932,0.33204 -2.2632,4.06556 1.5792,2.15962 1.8966,2.18276 3.4966,0.25484 2.3488,-2.83008 3.6446,-2.6723 4.4863,0.54626 0.949,3.62899 2.2999,3.36138 6.731,-1.33333 z M 1052,313.33332 c 0,-0.73333 0.5646,-1.33333 1.2546,-1.33333 0.6901,0 1.6255,0.6 2.0787,1.33333 0.4532,0.73334 -0.1113,1.33334 -1.2546,1.33334 -1.1433,0 -2.0787,-0.6 -2.0787,-1.33334 z m 7.501,12.1063 c 1.9308,-1.51874 2.6902,-2.90942 1.8667,-3.41834 -0.7635,-0.47189 -2.3264,0.0803 -3.4732,1.22703 -1.1468,1.14676 -2.6421,2.08501 -3.3231,2.08501 -0.6809,0 -1.2381,0.6 -1.2381,1.33334 0,2.08998 2.6112,1.5705 6.1677,-1.22704 z m -22.4072,-21.81768 c 2.0133,-2.42592 -0.2913,-5.92827 -2.6589,-4.04078 -0.9725,0.77534 -2.9683,1.2262 -4.4349,1.00192 -2.4317,-0.37184 -2.3893,-0.18049 0.481,2.17123 3.7035,3.0344 4.7054,3.16585 6.6128,0.86763 z m -6.4272,-10.43127 c 0,-1.3882 -0.5265,-2.52401 -1.17,-2.52401 -1.89,0 -4.4658,3.76523 -3.5687,5.21669 1.2857,2.08032 4.7387,0.11827 4.7387,-2.69268 z m -194.66662,-6.44532 c 0,-1.42338 -0.6,-2.9588 -1.33334,-3.41202 -0.75621,-0.46736 -1.33333,0.65282 -1.33333,2.58797 0,1.87661 0.6,3.41203 1.33333,3.41203 0.73334,0 1.33334,-1.16459 1.33334,-2.58798 z M 1031.75,282.74999 c 0.3333,-1 -0.1667,-1.5 -1.1667,-1.16666 -0.9625,0.32082 -2.0125,1.37082 -2.3333,2.33333 -0.3334,1 0.1666,1.5 1.1666,1.16667 0.9625,-0.32084 2.0125,-1.37084 2.3334,-2.33334 z m 4.25,-5.41666 c 0,-1.46667 -0.6,-2.66667 -1.3334,-2.66667 -0.7333,0 -1.3333,1.2 -1.3333,2.66667 0,1.46666 0.6,2.66666 1.3333,2.66666 0.7334,0 1.3334,-1.2 1.3334,-2.66666 z M 830.87046,206.22221 c -0.41158,-61.8504 0.49654,-104.66326 2.11877,-99.88888 0.86381,2.54225 3.01075,1.98519 3.01075,-0.78119 0,-4.048 9.37584,-14.960643 13.57538,-15.800553 2.06687,-0.413375 3.75795,-1.306799 3.75795,-1.985389 0,-0.67859 -3.78779,-4.95359 -8.41729,-9.5 -13.4898,-13.247665 -16.85782,-16.102201 -17.83992,-15.1201 -1.11332,1.113316 -0.65031,200.863752 0.48101,207.520562 0.94023,5.53235 1.73081,7.15649 2.90972,5.9776 0.47656,-0.47657 0.6582,-32.16649 0.40363,-70.42205 z m 190.46284,47.94104 c 0,-0.27687 -1.05,-1.32687 -2.3333,-2.33334 -2.1148,-1.65849 -2.1619,-1.61133 -0.5034,0.50342 1.7418,2.221 2.8367,2.9273 2.8367,1.82992 z m -27.99999,-14.82992 c 0,-1.39683 -1.40742,-2 -4.66667,-2 -3.25925,0 -4.66667,0.60317 -4.66667,2 0,1.39682 1.40742,2 4.66667,2 3.25925,0 4.66667,-0.60318 4.66667,-2 z m -44,-60.66667 c 0,-0.73333 -0.6,-1.33333 -1.33334,-1.33333 -0.73333,0 -1.33333,0.6 -1.33333,1.33333 0,0.73333 0.6,1.33333 1.33333,1.33333 0.73334,0 1.33334,-0.6 1.33334,-1.33333 z m -5.33334,-4.9247 c 0,-1.84014 -26.71876,-27.0753 -28.66708,-27.0753 -3.45249,0 -2.2538,1.90462 6.62215,10.52198 13.3776,12.98786 22.04493,19.49608 22.04493,16.55332 z m -47.88172,-45.52097 c -1.96802,-3.67728 -17.78529,-18.9557 -21.78494,-21.0428 -3.4038,-1.77617 -3.66667,-1.72594 -3.66667,0.70077 0,5.80274 2.50786,8.93646 10.18984,12.73284 4.29559,2.12285 9.20815,5.55939 10.9168,7.63674 3.28035,3.98821 6.48327,3.9679 4.34497,-0.0275 z M 257.33333,98.666664 c 0,-4.274268 -1.85439,-5.373268 -3.19068,-1.890951 -1.37118,3.573207 -0.90271,5.890947 1.19068,5.890947 1.33333,0 2,-1.33333 2,-3.999996 z"
       id="path4530"
       inkscape:connector-curvature="0" />
    <path
       style="fill:#199bab;stroke-width:1.33333325"
       d="m 335.99999,1184.2777 c -20.56841,-1.7141 -50.88638,-12.2282 -67.1942,-23.3026 -11.355,-7.7111 -28.10616,-22.8046 -34.9494,-31.4909 -12.312,-15.6281 -23.29046,-40.8412 -27.30568,-62.7101 -2.31322,-12.5991 -2.55072,-20.7366 -2.55072,-87.40002 0,-55.39468 -0.39425,-73.90169 -1.6,-75.10744 -1.20836,-1.20836 -20.89437,-1.6 -80.42466,-1.6 -68.202345,0 -79.800585,-0.28631 -86.066663,-2.12461 C 20.930682,896.14788 8.8349777,886.75754 2.7244158,874.77984 0.02146005,869.48162 0,868.05248 0,693.34841 V 517.25728 l 3.8792866,-7.62865 c 2.1336075,-4.19575 5.8836074,-9.5304 8.3333334,-11.85476 6.091127,-5.77943 17.706094,-11.8407 26.047052,-13.59266 4.559092,-0.9576 33.420787,-1.44134 84.446558,-1.4154 57.44584,0.0292 78.0088,-0.36606 79.40699,-1.52645 1.60915,-1.33548 1.88677,-27.12367 1.88677,-175.25534 0,-195.52641 -0.56477,-183.89688 10.24228,-210.902699 6.69518,-16.730605 13.04715,-27.384648 24.09534,-40.414656 14.48289,-17.080821 25.92428,-26.094954 45.7489,-36.043416 15.16789,-7.611605 19.89333,-9.5162895 33.91348,-13.6695022 9.26673,-2.7451029 11.06257,-2.7682646 251.68574,-3.2461218 215.97045,-0.428899 242.82206,-0.2580866 246.66666,1.5691316 2.37284,1.1277326 14.26287,11.5018074 26.42229,23.0534984 12.15943,11.551693 35.55943,33.603077 52,49.003076 16.44057,15.4 38.59196,36.412589 49.22529,46.694649 19.00664,18.37874 63.02403,60.21385 82.66663,78.56824 5.5,5.13928 25.85,24.65757 45.2221,43.37396 19.3721,18.7164 44.5721,43.02048 56,54.00908 11.4279,10.9886 26.3279,25.47521 33.1113,32.19249 l 12.3333,12.21321 -2e-4,359.14085 c -3e-4,391.75219 0.4577,367.74219 -7.4328,389.70799 -8.5858,23.9013 -26.6906,47.9382 -47.9003,63.5947 -13.8232,10.2039 -18.3382,12.8458 -30.4807,17.835 -19.9066,8.1794 -29.7025,10.1643 -53.5193,10.8443 -23.3176,0.6658 -690.42,1.4016 -698.00001,0.7699 z m 639.33332,-33.9466 c 90.23509,-0.3735 81.32289,0.61 107.06549,-11.8147 11.7889,-5.6898 15.3985,-8.2767 25.5067,-18.2795 6.4759,-6.4085 14.194,-15.3953 17.1512,-19.9708 6.5535,-10.1394 12.7984,-26.9643 14.7929,-39.8549 1.0363,-6.6971 1.4837,-65.49848 1.4837,-194.98866 0,-182.344 -0.043,-185.42672 -2.5989,-187.02299 -1.7006,-1.06205 -2.173,-2.13613 -1.3668,-3.10756 0.7361,-0.88693 1.2728,-60.75527 1.3332,-148.7216 l 0.1012,-147.23707 -121.7343,-0.19 -121.73439,-0.19001 -11.33334,-3.41712 c -29.06127,-8.76228 -30.87279,-9.56441 -45.33333,-20.07321 -7.69681,-5.59346 -20.4719,-18.60259 -29.08284,-29.61563 -10.00928,-12.80148 -12.42225,-18.42741 -19.37814,-45.18069 -2.6949,-10.36495 -2.7808,-13.94135 -3.03711,-126.43648 C 787.02348,90.556788 786.64107,38.196648 786.31874,37.874319 785.99642,37.551988 683.14487,37.303386 557.75978,37.321868 l -227.9729,0.0336 -10.56012,3.10363 c -17.09977,5.02565 -44.6891,23.197735 -55.21363,36.367212 -5.33683,6.678032 -14.6232,23.8396 -19.75447,36.50702 L 240.74799,122 240.04066,299.99999 c -0.38904,97.9 -0.368,178.45933 0.0468,179.02074 0.41475,0.56142 151.46276,1.00679 335.66226,0.98972 l 334.90819,-0.0311 9.19912,3.21397 c 11.32261,3.95589 22.6931,11.0836 27.28502,17.10392 1.90102,2.49236 5.57175,9.77869 8.15718,16.19187 l 4.7008,11.6603 v 72.01291 c 0,45.77408 0.48902,72.92665 1.34214,74.52071 1.0364,1.93654 0.8086,2.8063 -1,3.81803 -2.18804,1.224 -2.38601,7.30875 -3.00881,92.47605 l -0.66667,91.16583 -4.37354,8.61469 c -5.60392,11.0382 -13.31128,20.02279 -21.08388,24.57782 -12.85078,7.53107 1.80705,7.23411 -359.57557,7.28459 l -333.03304,0.0466 -0.967,3 c -0.53185,1.65 -0.64557,37.8 -0.25273,80.33333 0.70637,76.47933 0.74857,77.43643 3.82066,86.66663 5.9826,17.975 19.38608,40.1833 30.29166,50.1904 10.35472,9.5016 38.78966,23.9481 51.88779,26.3619 4.37376,0.806 10.95228,1.6114 14.61895,1.7899 7.55725,0.3678 515.14063,-0.1719 637.33332,-0.6777 z M 1005,676.33437 c 18.5166,-0.2091 48.8166,-0.2091 67.3333,0 18.5167,0.20909 3.3667,0.38017 -33.6667,0.38017 -37.0333,0 -52.18329,-0.17108 -33.6666,-0.38017 z m 120.6666,0.0799 c 1.2834,-0.33536 3.3834,-0.33536 4.6667,0 1.2833,0.33538 0.2333,0.60978 -2.3333,0.60978 -2.5667,0 -3.6167,-0.2744 -2.3334,-0.60978 z m -431.46343,203.72919 221.5365,-0.81011 5.79682,-4.16801 c 3.18824,-2.29242 7.59682,-7.04598 9.79682,-10.56347 l 4,-6.39544 -0.0876,-162.76988 c -0.0483,-89.52342 -0.51262,-164.95175 -1.03203,-167.61852 -1.17416,-6.02843 -9.95123,-16.23552 -17.37604,-20.20708 l -5.50433,-2.94426 -433.88578,0.34923 -433.885773,0.34923 -5.949903,2.97153 c -7.333486,3.66252 -15.795357,13.04385 -17.588624,19.49979 -1.8414,6.62922 -1.8414,323.03121 0,329.66044 2.570877,9.25541 14.395869,20.09492 24.643435,22.58968 4.763292,1.15961 339.950085,1.18896 649.536505,0.0568 z M 104.88889,817.77775 c -1.95188,-1.95187 -0.48532,-6.74519 3.80748,-12.44444 4.86617,-6.46048 53.34231,-78.84656 67.31577,-100.518 l 8.50129,-13.18466 -3.12652,-5.482 c -5.34677,-9.37499 -22.84427,-36.56391 -62.03452,-96.39385 -5.9138,-9.02832 -8.74765,-14.61336 -8.45668,-16.66667 l 0.43762,-3.08815 32.7288,-0.35604 32.72878,-0.35602 3.376,3.68936 c 3.09051,3.37737 9.45378,13.64222 26.91466,43.41712 9.20233,15.69213 15.43152,24.93892 16.80034,24.93892 1.17415,0 6.44562,-7.7741 8.39223,-12.37644 0.55283,-1.30704 5.51679,-9.23775 11.031,-17.62379 5.51423,-8.38605 13.05093,-20.36891 16.74823,-26.62856 3.6973,-6.25967 8.11004,-12.29044 9.80609,-13.40175 2.57177,-1.68508 8.152,-1.96094 33.61213,-1.66166 l 30.5284,0.35886 0.39736,3.4124 c 0.28053,2.40914 -2.46352,7.77978 -9.33333,18.26715 -5.35188,8.17012 -15.35416,23.73453 -22.22727,34.5876 -6.87312,10.85307 -18.42312,29.02684 -25.66666,40.38614 -7.24356,11.35931 -13.1701,21.87243 -13.1701,23.36247 0,1.49005 5.92462,11.69608 13.16582,22.68005 7.2412,10.98398 24.94119,37.77383 39.33333,59.53302 14.39213,21.75918 26.16752,40.38918 26.16752,41.39999 0,4.63195 -2.76788,5.03784 -34.35432,5.03784 -17.64717,0 -32.20549,-0.56256 -33.57884,-1.29756 -1.33348,-0.71366 -7.37748,-9.26366 -13.43112,-19 -6.05363,-9.73634 -13.66307,-21.90244 -16.90985,-27.03577 -3.24679,-5.13333 -8.84276,-13.98333 -12.43551,-19.66666 -3.59273,-5.68334 -7.30283,-10.32118 -8.24464,-10.30631 -2.18104,0.0344 -19.72423,26.36039 -41.29776,61.97297 -9.94177,16.41141 -6.82424,15.33333 -44.34012,15.33333 -17.7632,0 -32.69673,-0.4 -33.18561,-0.88889 z m 265.31775,-1.54943 c -2.01869,-2.23062 -2.20665,-12.59708 -2.20665,-121.70331 0,-105.78619 0.23457,-119.59992 2.0756,-122.22835 2.05033,-2.92725 2.47972,-2.96334 35.25899,-2.96334 32.54669,0 33.24662,0.0576 36.48011,3 2.00954,1.82865 8.05874,14.1928 15.493,31.66666 14.42119,33.89623 12.71212,29.9833 21.95076,50.25652 4.07451,8.94108 7.4082,16.61436 7.4082,17.05173 0,0.43736 2.1835,5.57194 4.85222,11.41015 3.13934,6.86779 5.6104,10.61408 7,10.61253 1.46404,-10e-4 4.44666,-5.2013 9.3691,-16.33333 3.97172,-8.98201 11.55534,-25.93093 16.85247,-37.66426 10.19124,-22.57394 16.63208,-37.2163 24.04662,-54.66667 6.86122,-16.14807 4.59267,-15.33333 42.69396,-15.33333 30.74119,0 32.66475,0.14578 35.18563,2.66666 2.62684,2.62684 2.66667,4.44444 2.66667,121.70332 0,105.57952 -0.23466,119.37166 -2.0756,122 -2.03144,2.90029 -2.66412,2.96334 -29.73334,2.96334 -19.7338,0 -28.11613,-0.4584 -29.25773,-1.6 -1.20365,-1.20365 -1.6,-18.87408 -1.6,-71.33333 0,-39.11344 -0.51377,-69.73333 -1.17008,-69.73333 -1.84073,0 -3.67365,2.88508 -5.50605,8.66667 -0.92968,2.93333 -3.3871,8.72506 -5.46092,12.8705 -2.07383,4.14544 -7.33578,16.14544 -11.69323,26.66667 -15.68629,37.8752 -20.48174,48.51149 -23.20238,51.46282 -2.60299,2.82371 -3.81339,3 -20.59675,3 -17.20995,0 -17.93356,-0.11333 -20.76759,-3.2522 -2.58952,-2.86809 -9.61452,-18.10307 -23.70769,-51.41446 -2.32689,-5.5 -6.17455,-14.2 -8.55033,-19.33333 -2.37579,-5.13334 -5.15032,-11.38339 -6.16563,-13.889 -3.73437,-9.21584 -7.21403,-15.21182 -8.51268,-14.66867 -0.86445,0.36156 -1.33333,24.74956 -1.33333,69.35136 0,56.34769 -0.33107,69.19285 -1.82992,71 -1.5923,1.9198 -5.33143,2.2063 -28.79336,2.2063 -24.4284,0 -27.17088,-0.22924 -29.17007,-2.43832 z m 304.46001,-0.22834 c -2.62694,-2.62694 -2.66667,-4.44444 -2.66667,-122 0,-117.55556 0.0397,-119.37306 2.66667,-122 2.49132,-2.49132 4.44444,-2.66666 29.70332,-2.66666 22.31233,0 27.55446,0.36269 30,2.0756 l 2.96334,2.07561 v 92.99105 c 0,70.54861 0.38615,93.37721 1.6,94.59107 1.19272,1.19272 15.59802,1.6 56.59107,1.6 54.66577,0 55.00286,0.0169 56.98809,2.85117 2.92565,4.17696 1.54156,48.99566 -1.58988,51.48216 -1.63,1.29429 -21.25632,1.66666 -87.84412,1.66666 -83.96738,0 -85.80045,-0.0553 -88.41182,-2.66666 z M 1120.7269,341.23575 c 0.4864,-0.78699 -3.5463,-5.73699 -8.9616,-11 -22.7593,-22.1194 -51.4114,-49.71676 -74.3043,-71.56909 -13.4444,-12.83333 -33.2186,-31.73333 -43.94268,-42 -10.72408,-10.26667 -26.10283,-24.98841 -34.175,-32.715 -8.07217,-7.72658 -21.57668,-20.56338 -30.01001,-28.52624 -26.26828,-24.8028 -54.20484,-51.37966 -73.13968,-69.579878 -21.32,-20.492846 -30.14828,-28.51221 -31.38824,-28.51221 -0.493,0 -0.72351,47.849998 -0.51223,106.333328 l 0.38415,106.33333 3.12429,9.33334 c 9.7779,29.20983 19.10527,40.22283 45.45647,53.67134 19.40569,9.90381 12.32898,9.40612 135.66323,9.54084 77.6742,0.0848 111.1864,-0.30775 111.8056,-1.30976 z"
       id="path4528"
       inkscape:connector-curvature="0" />
    <path
       style="fill:#5e5e5e;stroke-width:1.33333325"
       d="m 335.99999,1184.2777 c -20.56841,-1.7141 -50.88638,-12.2282 -67.1942,-23.3026 -11.355,-7.7111 -28.10616,-22.8046 -34.9494,-31.4909 -12.312,-15.6281 -23.29046,-40.8412 -27.30568,-62.7101 -2.31322,-12.5991 -2.55072,-20.7366 -2.55072,-87.40002 0,-55.39468 -0.39425,-73.90169 -1.6,-75.10744 -1.20836,-1.20836 -20.89437,-1.6 -80.42466,-1.6 -68.202345,0 -79.800585,-0.28631 -86.066663,-2.12461 C 20.930682,896.14788 8.8349777,886.75754 2.7244158,874.77984 0.02146005,869.48162 0,868.05248 0,693.34841 V 517.25728 l 3.8792866,-7.62865 c 2.1336075,-4.19575 5.8836074,-9.5304 8.3333334,-11.85476 6.091127,-5.77943 17.706094,-11.8407 26.047052,-13.59266 4.559092,-0.9576 33.420787,-1.44134 84.446558,-1.4154 57.44584,0.0292 78.0088,-0.36606 79.40699,-1.52645 1.60915,-1.33548 1.88677,-27.12367 1.88677,-175.25534 0,-195.52641 -0.56477,-183.89688 10.24228,-210.902699 6.69518,-16.730605 13.04715,-27.384648 24.09534,-40.414656 14.48289,-17.080821 25.92428,-26.094954 45.7489,-36.043416 15.16789,-7.611605 19.89333,-9.5162895 33.91348,-13.6695022 9.26673,-2.7451029 11.06257,-2.7682646 251.68574,-3.2461218 215.97045,-0.428899 242.82206,-0.2580866 246.66666,1.5691316 2.37284,1.1277326 14.26287,11.5018074 26.42229,23.0534984 12.15943,11.551693 35.55943,33.603077 52,49.003076 16.44057,15.4 38.59196,36.412589 49.22529,46.694649 19.00664,18.37874 63.02403,60.21385 82.66663,78.56824 5.5,5.13928 25.85,24.65757 45.2221,43.37396 19.3721,18.7164 44.5721,43.02048 56,54.00908 11.4279,10.9886 26.3279,25.47521 33.1113,32.19249 l 12.3333,12.21321 -2e-4,359.14085 c -3e-4,391.75219 0.4577,367.74219 -7.4328,389.70799 -8.5858,23.9013 -26.6906,47.9382 -47.9003,63.5947 -13.8232,10.2039 -18.3382,12.8458 -30.4807,17.835 -19.9066,8.1794 -29.7025,10.1643 -53.5193,10.8443 -23.3176,0.6658 -690.42,1.4016 -698.00001,0.7699 z m 639.33332,-33.9466 c 90.23509,-0.3735 81.32289,0.61 107.06549,-11.8147 11.7889,-5.6898 15.3985,-8.2767 25.5067,-18.2795 6.4759,-6.4085 14.194,-15.3953 17.1512,-19.9708 6.5535,-10.1394 12.7984,-26.9643 14.7929,-39.8549 1.0363,-6.697 1.4837,-65.48139 1.4837,-194.92436 V 680.15119 l -2.9633,-2.07561 c -2.2515,-1.57696 -2.4459,-2.0756 -0.8094,-2.0756 1.1848,0 2.5183,-0.94907 2.9634,-2.10905 1.3913,-3.62562 0.934,-294.98986 -0.4644,-295.85407 -0.7005,-0.43294 -54.6823,-0.7592 -119.9595,-0.72502 -131.62522,0.0689 -126.80973,0.35134 -152.98743,-8.97213 -14.92437,-5.31547 -24.22661,-11.17076 -37.31439,-23.48751 -19.7695,-18.60485 -28.08014,-30.94272 -33.8012,-50.18081 -6.52808,-21.95182 -6.67846,-25.23132 -6.62529,-144.48155 0.0375,-83.916771 -0.34204,-112.282365 -1.52105,-113.702997 -1.34804,-1.624296 -34.0324,-1.836153 -230.3775,-1.493285 l -228.80658,0.399554 -10,3.125802 c -17.06742,5.334934 -40.63641,20.509138 -53.19008,34.244852 -12.49561,13.672185 -24.57464,39.372694 -26.78324,56.986594 -2.08029,16.59068 -1.85307,349.22324 0.23999,351.31629 1.23588,1.23588 78.08091,1.60442 337.66665,1.6194 364.3069,0.0211 338.75478,-0.4764 353.19065,6.8758 12.7364,6.48667 18.39601,13.06768 24.45648,28.43814 l 3.68006,9.33333 0.42248,74.33333 c 0.39254,69.0655 0.5841,74.33633 2.70307,74.37573 1.98872,0.0369 1.93931,0.30021 -0.38608,2.05679 -2.6092,1.97096 -2.68103,3.97565 -3.33333,93.02912 l -0.66667,91.01473 -4.37355,8.61469 c -5.60392,11.0382 -13.31128,20.02279 -21.08388,24.57782 -12.85077,7.53107 1.80706,7.23411 -359.57556,7.28459 l -333.03299,0.0465 -0.967,3 c -0.53185,1.65 -0.64557,37.8 -0.25273,80.33333 0.70637,76.47935 0.74857,77.43645 3.82066,86.66665 5.9826,17.975 19.38608,40.1833 30.29166,50.1904 10.35472,9.5016 38.78966,23.9481 51.88779,26.3619 4.37376,0.806 10.95228,1.6114 14.61895,1.7899 7.55725,0.3678 515.14063,-0.1719 637.33332,-0.6777 z M 1005,676.33437 c 18.5166,-0.2091 48.8166,-0.2091 67.3333,0 18.5167,0.20909 3.3667,0.38017 -33.6667,0.38017 -37.0333,0 -52.18329,-0.17108 -33.6666,-0.38017 z m 120.6666,0.0799 c 1.2834,-0.33536 3.3834,-0.33536 4.6667,0 1.2833,0.33538 0.2333,0.60978 -2.3333,0.60978 -2.5667,0 -3.6167,-0.2744 -2.3334,-0.60978 z m -431.46343,203.72919 221.5365,-0.81011 5.79682,-4.16801 c 3.18824,-2.29242 7.59682,-7.04598 9.79682,-10.56347 l 4,-6.39544 -0.0876,-162.76988 c -0.0483,-89.52342 -0.51262,-164.95175 -1.03203,-167.61852 -1.17416,-6.02843 -9.95123,-16.23552 -17.37604,-20.20708 l -5.50433,-2.94426 -433.88578,0.34923 -433.885773,0.34923 -5.949903,2.97153 c -7.333486,3.66252 -15.795357,13.04385 -17.588624,19.49979 -1.8414,6.62922 -1.8414,323.03121 0,329.66044 2.570877,9.25541 14.395869,20.09492 24.643435,22.58968 4.763292,1.15961 339.950085,1.18896 649.536505,0.0568 z M 104.88889,817.77775 c -1.95188,-1.95187 -0.48532,-6.74519 3.80748,-12.44444 4.86617,-6.46048 53.34231,-78.84656 67.31577,-100.518 l 8.50129,-13.18466 -3.12652,-5.482 c -5.34677,-9.37499 -22.84427,-36.56391 -62.03452,-96.39385 -5.9138,-9.02832 -8.74765,-14.61336 -8.45668,-16.66667 l 0.43762,-3.08815 32.7288,-0.35604 32.72878,-0.35602 3.376,3.68936 c 3.09051,3.37737 9.45378,13.64222 26.91466,43.41712 9.20233,15.69213 15.43152,24.93892 16.80034,24.93892 1.17415,0 6.44562,-7.7741 8.39223,-12.37644 0.55283,-1.30704 5.51679,-9.23775 11.031,-17.62379 5.51423,-8.38605 13.05093,-20.36891 16.74823,-26.62856 3.6973,-6.25967 8.11004,-12.29044 9.80609,-13.40175 2.57177,-1.68508 8.152,-1.96094 33.61213,-1.66166 l 30.5284,0.35886 0.39736,3.4124 c 0.28053,2.40914 -2.46352,7.77978 -9.33333,18.26715 -5.35188,8.17012 -15.35416,23.73453 -22.22727,34.5876 -6.87312,10.85307 -18.42312,29.02684 -25.66666,40.38614 -7.24356,11.35931 -13.1701,21.87243 -13.1701,23.36247 0,1.49005 5.92462,11.69608 13.16582,22.68005 7.2412,10.98398 24.94119,37.77383 39.33333,59.53302 14.39213,21.75918 26.16752,40.38918 26.16752,41.39999 0,4.63195 -2.76788,5.03784 -34.35432,5.03784 -17.64717,0 -32.20549,-0.56256 -33.57884,-1.29756 -1.33348,-0.71366 -7.37748,-9.26366 -13.43112,-19 -6.05363,-9.73634 -13.66307,-21.90244 -16.90985,-27.03577 -3.24679,-5.13333 -8.84276,-13.98333 -12.43551,-19.66666 -3.59273,-5.68334 -7.30283,-10.32118 -8.24464,-10.30631 -2.18104,0.0344 -19.72423,26.36039 -41.29776,61.97297 -9.94177,16.41141 -6.82424,15.33333 -44.34012,15.33333 -17.7632,0 -32.69673,-0.4 -33.18561,-0.88889 z m 265.31775,-1.54943 c -2.01869,-2.23062 -2.20665,-12.59708 -2.20665,-121.70331 0,-105.78619 0.23457,-119.59992 2.0756,-122.22835 2.05033,-2.92725 2.47972,-2.96334 35.25899,-2.96334 32.54669,0 33.24662,0.0576 36.48011,3 2.00954,1.82865 8.05874,14.1928 15.493,31.66666 14.42119,33.89623 12.71212,29.9833 21.95076,50.25652 4.07451,8.94108 7.4082,16.61436 7.4082,17.05173 0,0.43736 2.1835,5.57194 4.85222,11.41015 3.13934,6.86779 5.6104,10.61408 7,10.61253 1.46404,-10e-4 4.44666,-5.2013 9.3691,-16.33333 3.97172,-8.98201 11.55534,-25.93093 16.85247,-37.66426 10.19124,-22.57394 16.63208,-37.2163 24.04662,-54.66667 6.86122,-16.14807 4.59267,-15.33333 42.69396,-15.33333 30.74119,0 32.66475,0.14578 35.18563,2.66666 2.62684,2.62684 2.66667,4.44444 2.66667,121.70332 0,105.57952 -0.23466,119.37166 -2.0756,122 -2.03144,2.90029 -2.66412,2.96334 -29.73334,2.96334 -19.7338,0 -28.11613,-0.4584 -29.25773,-1.6 -1.20365,-1.20365 -1.6,-18.87408 -1.6,-71.33333 0,-39.11344 -0.51377,-69.73333 -1.17008,-69.73333 -1.84073,0 -3.67365,2.88508 -5.50605,8.66667 -0.92968,2.93333 -3.3871,8.72506 -5.46092,12.8705 -2.07383,4.14544 -7.33578,16.14544 -11.69323,26.66667 -15.68629,37.8752 -20.48174,48.51149 -23.20238,51.46282 -2.60299,2.82371 -3.81339,3 -20.59675,3 -17.20995,0 -17.93356,-0.11333 -20.76759,-3.2522 -2.58952,-2.86809 -9.61452,-18.10307 -23.70769,-51.41446 -2.32689,-5.5 -6.17455,-14.2 -8.55033,-19.33333 -2.37579,-5.13334 -5.15032,-11.38339 -6.16563,-13.889 -3.73437,-9.21584 -7.21403,-15.21182 -8.51268,-14.66867 -0.86445,0.36156 -1.33333,24.74956 -1.33333,69.35136 0,56.34769 -0.33107,69.19285 -1.82992,71 -1.5923,1.9198 -5.33143,2.2063 -28.79336,2.2063 -24.4284,0 -27.17088,-0.22924 -29.17007,-2.43832 z m 304.46001,-0.22834 c -2.62694,-2.62694 -2.66667,-4.44444 -2.66667,-122 0,-117.55556 0.0397,-119.37306 2.66667,-122 2.49132,-2.49132 4.44444,-2.66666 29.70332,-2.66666 22.31233,0 27.55446,0.36269 30,2.0756 l 2.96334,2.07561 v 92.99105 c 0,70.54861 0.38615,93.37721 1.6,94.59107 1.19272,1.19272 15.59802,1.6 56.59107,1.6 54.66577,0 55.00286,0.0169 56.98809,2.85117 2.92565,4.17696 1.54156,48.99566 -1.58988,51.48216 -1.63,1.29429 -21.25632,1.66666 -87.84412,1.66666 -83.96738,0 -85.80045,-0.0553 -88.41182,-2.66666 z M 1123.447,343.66464 c 2.6021,-2.60362 -0.6063,-5.87118 -84.0104,-85.55883 -13.8766,-13.2582 -35.1994,-33.70582 -47.38417,-45.43915 -12.18474,-11.73333 -33.8312,-32.38512 -48.10326,-45.89285 -14.27206,-13.50773 -33.4978,-31.80773 -42.72385,-40.66666 -49.15085,-47.195022 -74.76021,-70.773818 -76.8687,-70.773818 -2.22958,0 -2.37538,5.463581 -2.704,101.333328 -0.37747,110.1198 -0.32752,111.03367 7.1553,130.91372 5.27254,14.00782 9.20007,20.68602 16.47164,28.00761 13.35419,13.44605 36.39085,25.89285 53.38708,28.84524 5.86407,1.01863 223.73866,0.27367 224.78036,-0.76859 z"
       id="path4526"
       inkscape:connector-curvature="0" />
    <path
       style="fill:#177986;stroke-width:1.33333325"
       d="m 325.99999,1178.5922 c -10.83821,-1.449 -37.06812,-10.4292 -47.49524,-16.2607 -11.23698,-6.2843 -33.44394,-24.9823 -41.56622,-34.9982 -10.89856,-13.4394 -24.04831,-43.6181 -27.01528,-62 -0.53264,-3.3 -1.03328,-41.2286 -1.11252,-84.28574 -0.12454,-67.67989 -0.41502,-78.55617 -2.14407,-80.28177 -1.72487,-1.72144 -13.47357,-2.04898 -85.40366,-2.38092 l -83.403656,-0.3849 -9.023553,-4.58046 C 17.418069,887.62372 11.180832,881.53788 5.5202349,870.66986 L 1.0404702,862.06896 0.87245891,694.03447 0.70444762,525.99999 4.6855571,516.85992 c 5.1015637,-11.71247 12.7471789,-19.66933 23.6502119,-24.613 l 8.559755,-3.88119 83.475986,-0.623 c 64.66056,-0.48257 83.93468,-1.00368 85.51103,-2.31193 1.80219,-1.49568 2.08343,-22.23195 2.45791,-181.22653 l 0.42286,-179.53761 3.46462,-11.33333 C 214.13346,107.1 216.3057,100.5 217.05514,98.666664 c 0.74943,-1.833333 2.69812,-6.633333 4.33044,-10.666666 3.94601,-9.750312 10.64155,-20.114571 19.78145,-30.620416 16.35966,-18.804546 27.79531,-27.573364 49.06595,-37.623596 13.2252,-6.248816 19.3914,-8.489855 32.43368,-11.7876865 6.45816,-1.6329898 491.08172,-1.9480267 493.98884,-0.321125 2.12422,1.1887778 38.54837,35.2824295 77.29857,72.3528235 20.29525,19.415477 56.2046,53.564292 96.71257,91.971062 61.60686,58.41124 77.06616,73.20079 90.62186,86.6956 7.7347,7.7 25.7338,25.1 39.9981,38.66666 14.2643,13.56667 30.838,29.46667 36.8305,35.33334 l 10.8953,10.66666 0.7343,12 c 0.4038,6.6 0.7863,165.6 0.8499,353.33333 0.1,294.82515 -0.1522,342.96835 -1.85,353.33335 -4.0173,24.5246 -9.1934,37.7396 -22.7701,58.1334 -9.3929,14.1091 -17.8747,22.5399 -34.7234,34.5142 -14.0873,10.0118 -18.067,12.0078 -35.9621,18.0362 -10.4854,3.5322 -18.3979,5.2482 -27.9577,6.0632 -16.8698,1.4382 -710.53203,1.2894 -721.33331,-0.1548 z m 733.49911,-27.5548 c 13.439,-4.1791 30.6052,-12.5245 40.0224,-19.4571 11.4233,-8.4094 25.5306,-25.0119 32.2599,-37.966 3.1577,-6.0788 7.2771,-16.8788 9.1541,-24 l 3.4128,-12.9477 0.6265,-191.19052 c 0.6081,-185.55235 0.5538,-191.17151 -1.8408,-190.54521 -2.3915,0.62551 -2.4566,-3.90424 -2.1168,-147.39219 0.1928,-81.42064 -0.156,-148.54414 -0.7752,-149.16334 -0.6192,-0.6192 -54.6088,-1.09782 -119.9768,-1.06359 -131.81007,0.0691 -126.97193,0.35245 -153.15253,-8.97204 -14.92437,-5.31547 -24.22661,-11.17076 -37.31439,-23.48751 -19.7695,-18.60485 -28.08014,-30.94272 -33.8012,-50.18081 -6.52808,-21.95182 -6.67846,-25.23132 -6.62529,-144.48155 0.0375,-83.916771 -0.34204,-112.282365 -1.52105,-113.702997 -1.34804,-1.624296 -34.0324,-1.836153 -230.3775,-1.493285 l -228.80658,0.399554 -10,3.125802 c -17.06742,5.334934 -40.63641,20.509138 -53.19008,34.244852 -12.49561,13.672185 -24.57464,39.372694 -26.78324,56.986594 -2.08029,16.59068 -1.85307,349.22324 0.23999,351.31629 1.23588,1.23588 78.08091,1.60442 337.66665,1.6194 364.3069,0.0211 338.75478,-0.4764 353.19065,6.8758 12.7364,6.48667 18.39601,13.06768 24.45648,28.43814 l 3.68006,9.33333 0.42243,74.3117 c 0.37392,65.77896 0.19168,74.22316 -1.58716,73.54056 -1.77667,-0.68177 -2.05323,10.10064 -2.38603,93.02163 l -0.37644,93.79277 -4.19292,8 c -5.67698,10.83158 -13.41678,19.29086 -21.99986,24.04493 l -7.14055,3.95506 -341.77422,0.66667 c -336.38116,0.65615 -341.80408,0.70751 -343.66665,3.25484 -2.90956,3.97924 -2.77416,143.09542 0.15358,157.80142 5.42239,27.2365 21.9656,56.0754 39.64604,69.1129 17.26216,12.729 41.84068,22.9986 59.64127,24.9197 2.56666,0.277 164.56666,0.4434 359.99999,0.3697 L 1050,1153.9913 Z M 915.29868,882.56508 c 9.03268,-3.37956 19.73201,-13.33969 22.23252,-20.69653 1.42204,-4.18379 1.84072,-36.95316 2.13917,-167.42978 0.36871,-161.19009 0.35346,-162.27501 -2.38584,-169.5964 -3.19566,-8.54121 -14.10157,-19.50932 -22.27565,-22.4027 -7.10596,-2.51531 -866.139688,-2.64834 -874.376793,-0.1354 -7.175184,2.18896 -19.545805,13.42881 -23.465655,21.32069 L 14,529.99999 v 160.66666 c 0,183.67206 -0.86939,169.89053 11.501837,182.32678 4.338507,4.36131 9.500345,7.96985 13.725825,9.59548 6.667655,2.56517 13.43361,2.60652 437.722308,2.67492 l 430.94996,0.0695 z M 108.76969,813.5 c -0.39656,-0.64165 2.35088,-5.22453 6.10544,-10.18418 6.72781,-8.88723 58.51969,-86.86184 68.33166,-102.87587 3.65464,-5.9647 4.78634,-9.02781 4.11586,-11.14028 -1.11766,-3.52142 -32.04372,-52.02633 -63.05637,-98.89857 -5.35355,-8.0913 -9.39146,-15.05372 -8.97314,-15.47204 0.41832,-0.41832 14.2497,-0.8444 30.7364,-0.94684 25.78923,-0.16025 30.22968,0.10734 31.79336,1.91575 2.22117,2.56887 18.27595,28.92325 29.57479,48.54793 15.36112,26.68034 17.19724,26.9392 29.93836,4.22075 2.46764,-4.4 7.29193,-12.2 10.72064,-17.33333 3.4287,-5.13334 9.72906,-15.24455 14.00078,-22.46938 4.27172,-7.22481 8.40631,-13.34242 9.18798,-13.59468 3.24578,-1.04745 56.63739,-1.49906 58.26551,-0.49282 1.40111,0.86593 1.15108,1.87637 -1.19418,4.82606 -1.63148,2.05195 -6.12019,8.80078 -9.9749,14.9974 -3.8547,6.19662 -12.70856,20.11362 -19.67522,30.92667 -34.34871,53.31306 -38.59137,60.45552 -38.63552,65.04229 -0.0184,1.91132 5.59905,11.73387 13.72545,24 7.56614,11.42045 21.02101,31.86445 29.89973,45.43112 8.87874,13.56666 20.42694,30.81138 25.66267,38.32161 5.23575,7.51021 9.14545,14.26021 8.68824,15 -0.51996,0.84131 -12.29357,1.34505 -31.43689,1.34505 h -30.60561 l -6.31571,-9.99449 c -7.93429,-12.55591 -24.00788,-38.44424 -33.80263,-54.443 -6.60176,-10.78332 -7.97954,-12.27845 -11.6535,-12.646 -4.00664,-0.40084 -4.61484,0.27563 -15.84639,17.62504 -13.28344,20.51896 -28.07264,43.79044 -33.76142,53.12512 l -3.85968,6.33333 h -30.61735 c -16.83954,0 -30.9418,-0.52498 -31.33836,-1.16664 z m 264.11919,0.27775 c -0.48889,-0.48888 -0.88889,-54.11541 -0.88889,-119.17006 0,-96.63295 0.32369,-118.54983 1.76856,-119.74896 2.16191,-1.79423 61.6968,-1.90537 65.03016,-0.12147 1.21766,0.65167 3.23974,3.75236 4.4935,6.89043 1.25375,3.13805 6.49655,15.30556 11.65064,27.03889 11.07355,25.20902 26.5711,60.65112 33.65528,76.96793 2.77824,6.39903 5.85139,12.29858 6.82922,13.1101 2.6567,2.20488 6.26384,0.99194 8.19054,-2.75414 3.77744,-7.34442 13.61923,-29.17073 16.82988,-37.32389 1.87707,-4.76666 5.14728,-12.26666 7.26714,-16.66666 2.11983,-4.4 5.83923,-12.5 8.26531,-18 2.42607,-5.5 6.9593,-15.7 10.07383,-22.66667 3.11453,-6.96667 6.72849,-15.57029 8.03101,-19.11917 1.58708,-4.32416 3.4216,-6.853 5.56171,-7.66667 3.9528,-1.50285 60.37439,-1.58292 62.72867,-0.0891 1.36933,0.8689 1.69633,24.62836 1.64605,119.60019 -0.0345,65.18374 -0.54709,119.00025 -1.13908,119.59223 -0.59199,0.59199 -12.43271,0.91271 -26.31272,0.71272 l -25.23637,-0.3635 -0.0663,-72.99955 c -0.0465,-51.21776 -0.50372,-73.43705 -1.53245,-74.46578 -2.47362,-2.47362 -6.58058,-0.0655 -8.80323,5.16185 -6.17413,14.52053 -18.90731,44.24677 -24.97416,58.30348 -3.79808,8.8 -9.27238,21.67487 -12.16513,28.61081 -2.89275,6.93595 -5.91717,13.40322 -6.72095,14.37171 -1.10126,1.32694 -5.60286,1.66929 -18.2663,1.38918 l -16.80484,-0.3717 -7.63416,-15.33333 c -4.1988,-8.43334 -10.12114,-21.63334 -13.16075,-29.33334 -3.03963,-7.7 -7.5056,-17.93841 -9.92439,-22.75202 -2.4188,-4.81362 -6.5794,-14.335 -9.2458,-21.15864 -7.14904,-18.29531 -10.37482,-22.2256 -14.69548,-17.90495 -1.8223,1.82231 -2.06317,10.58429 -2.0052,72.94335 0.0363,38.97974 0.0508,71.62226 0.0325,72.53893 -0.0256,1.2747 -6.09566,1.66666 -25.81117,1.66666 -14.17779,0 -26.17779,-0.4 -26.66667,-0.88889 z m 305.22955,-0.25279 c -0.97706,-1.58092 -1.12404,-237.6305 -0.14856,-238.60598 1.19167,-1.19168 50.83263,-1.40444 52.73931,-0.22604 1.32124,0.81656 1.70833,20.89431 1.81805,94.30073 0.11454,76.63751 0.46351,93.65379 1.95743,95.45379 1.62497,1.95789 7.78359,2.2274 58,2.53817 l 56.18198,0.34768 v 23.33333 23.33334 l -84.91522,0.34317 c -47.21629,0.19081 -85.23389,-0.17243 -85.63299,-0.81819 z M 1123.447,343.66464 c 2.6021,-2.60362 -0.6063,-5.87118 -84.0104,-85.55883 -13.8766,-13.2582 -35.1994,-33.70582 -47.38417,-45.43915 -12.18474,-11.73333 -33.8312,-32.38512 -48.10326,-45.89285 -14.27206,-13.50773 -33.4978,-31.80773 -42.72385,-40.66666 -49.15085,-47.195022 -74.76021,-70.773818 -76.8687,-70.773818 -2.22958,0 -2.37538,5.463581 -2.704,101.333328 -0.37747,110.1198 -0.32752,111.03367 7.1553,130.91372 5.27254,14.00782 9.20007,20.68602 16.47164,28.00761 13.35419,13.44605 36.39085,25.89285 53.38708,28.84524 5.86407,1.01863 223.73866,0.27367 224.78036,-0.76859 z"
       id="path4524"
       inkscape:connector-curvature="0" />
    <path
       style="fill:#060706;stroke-width:1.33333325"
       d="m 325.99999,1178.5922 c -10.83821,-1.449 -37.06812,-10.4292 -47.49524,-16.2607 -11.23698,-6.2843 -33.44394,-24.9823 -41.56622,-34.9982 -10.89856,-13.4394 -24.04831,-43.6181 -27.01528,-62 -0.53264,-3.3 -1.03328,-41.2286 -1.11252,-84.28574 -0.12454,-67.67989 -0.41502,-78.55617 -2.14407,-80.28177 -1.72487,-1.72144 -13.47357,-2.04898 -85.40366,-2.38092 l -83.403656,-0.3849 -9.023553,-4.58046 C 17.418069,887.62372 11.180832,881.53788 5.5202349,870.66986 L 1.0404702,862.06896 0.87245891,694.03447 0.70444762,525.99999 4.6855571,516.85992 c 5.1015637,-11.71247 12.7471789,-19.66933 23.6502119,-24.613 l 8.559755,-3.88119 83.475986,-0.623 c 64.66056,-0.48257 83.93468,-1.00368 85.51103,-2.31193 1.80219,-1.49568 2.08343,-22.23195 2.45791,-181.22653 l 0.42286,-179.53761 3.46462,-11.33333 C 214.13346,107.1 216.3057,100.5 217.05514,98.666664 c 0.74943,-1.833333 2.69812,-6.633333 4.33044,-10.666666 3.94601,-9.750312 10.64155,-20.114571 19.78145,-30.620416 16.35966,-18.804546 27.79531,-27.573364 49.06595,-37.623596 13.2252,-6.248816 19.3914,-8.489855 32.43368,-11.7876865 6.45816,-1.6329898 491.08172,-1.9480267 493.98884,-0.321125 2.12422,1.1887778 38.54837,35.2824295 77.29857,72.3528235 20.29525,19.415477 56.2046,53.564292 96.71257,91.971062 61.60686,58.41124 77.06616,73.20079 90.62186,86.6956 7.7347,7.7 25.7338,25.1 39.9981,38.66666 14.2643,13.56667 30.838,29.46667 36.8305,35.33334 l 10.8953,10.66666 0.7343,12 c 0.4038,6.6 0.7863,165.6 0.8499,353.33333 0.1,294.82515 -0.1522,342.96835 -1.85,353.33335 -4.0173,24.5246 -9.1934,37.7396 -22.7701,58.1334 -9.3929,14.1091 -17.8747,22.5399 -34.7234,34.5142 -14.0873,10.0118 -18.067,12.0078 -35.9621,18.0362 -10.4854,3.5322 -18.3979,5.2482 -27.9577,6.0632 -16.8698,1.4382 -710.53203,1.2894 -721.33331,-0.1548 z m 733.49911,-27.5548 c 13.439,-4.1791 30.6052,-12.5245 40.0224,-19.4571 11.4233,-8.4094 25.5306,-25.0119 32.2599,-37.966 3.1577,-6.0788 7.3173,-16.8788 9.2435,-24 l 3.5022,-12.9477 0.2663,-338.66662 c 0.2268,-288.47038 -0.011,-339.10555 -1.6022,-341.62779 l -1.8684,-2.96115 -126.3281,-0.39818 -126.32806,-0.39819 -14.66666,-5.04403 C 849.95206,359.30031 836.14826,349.64251 817.97272,328.3713 804.9368,313.11508 798.20172,298.05922 794.58643,276.09258 793.931,272.11017 793.3189,216.49702 793.22619,152.50782 793.07231,46.292775 792.8665,35.994718 790.86214,34.221438 788.9647,32.542747 758.70953,32.191667 567.99998,31.635359 331.28984,30.944864 331.26448,30.945452 312.66666,37.558202 c -15.42079,5.483101 -32.82544,17.104975 -46.89348,31.312888 -9.58331,9.678585 -11.86599,12.990333 -18.97931,27.535449 -13.64596,27.902911 -12.54796,10.565911 -13.10536,206.926781 -0.26853,94.6 -0.141,173.89733 0.28342,176.21631 0.5625,3.07348 1.75508,4.53366 4.39986,5.38714 2.05418,0.6629 147.94888,1.03372 336.29486,0.85478 235.1771,-0.22346 334.62035,0.10773 339.33332,1.12992 21.42131,4.64626 35.14928,18.87446 39.33738,40.77074 1.02425,5.355 1.342,56.50807 1.06206,170.97444 l -0.39944,163.33333 -4.19292,8 c -5.67698,10.83158 -13.41678,19.29086 -21.99986,24.04493 l -7.14055,3.95506 -341.77422,0.66667 c -336.38116,0.65615 -341.80408,0.70751 -343.66665,3.25484 -2.90956,3.97924 -2.77416,143.09542 0.15358,157.80142 5.42239,27.2365 21.9656,56.0754 39.64604,69.1129 17.26216,12.729 41.84068,22.9986 59.64127,24.9197 2.56666,0.277 164.56666,0.4434 359.99999,0.3697 L 1050,1153.9913 Z M 915.29868,882.56508 c 9.03268,-3.37956 19.73201,-13.33969 22.23252,-20.69653 1.42204,-4.18379 1.84072,-36.95316 2.13917,-167.42978 0.36871,-161.19009 0.35346,-162.27501 -2.38584,-169.5964 -3.19566,-8.54121 -14.10157,-19.50932 -22.27565,-22.4027 -7.10596,-2.51531 -866.139688,-2.64834 -874.376793,-0.1354 -7.175184,2.18896 -19.545805,13.42881 -23.465655,21.32069 L 14,529.99999 v 160.66666 c 0,183.67206 -0.86939,169.89053 11.501837,182.32678 4.338507,4.36131 9.500345,7.96985 13.725825,9.59548 6.667655,2.56517 13.43361,2.60652 437.722308,2.67492 l 430.94996,0.0695 z M 108.76969,813.5 c -0.39656,-0.64165 2.35088,-5.22453 6.10544,-10.18418 6.72781,-8.88723 58.51969,-86.86184 68.33166,-102.87587 3.65464,-5.9647 4.78634,-9.02781 4.11586,-11.14028 -1.11766,-3.52142 -32.04372,-52.02633 -63.05637,-98.89857 -5.35355,-8.0913 -9.39146,-15.05372 -8.97314,-15.47204 0.41832,-0.41832 14.2497,-0.8444 30.7364,-0.94684 25.78923,-0.16025 30.22968,0.10734 31.79336,1.91575 2.22117,2.56887 18.27595,28.92325 29.57479,48.54793 15.36112,26.68034 17.19724,26.9392 29.93836,4.22075 2.46764,-4.4 7.29193,-12.2 10.72064,-17.33333 3.4287,-5.13334 9.72906,-15.24455 14.00078,-22.46938 4.27172,-7.22481 8.40631,-13.34242 9.18798,-13.59468 3.24578,-1.04745 56.63739,-1.49906 58.26551,-0.49282 1.40111,0.86593 1.15108,1.87637 -1.19418,4.82606 -1.63148,2.05195 -6.12019,8.80078 -9.9749,14.9974 -3.8547,6.19662 -12.70856,20.11362 -19.67522,30.92667 -34.34871,53.31306 -38.59137,60.45552 -38.63552,65.04229 -0.0184,1.91132 5.59905,11.73387 13.72545,24 7.56614,11.42045 21.02101,31.86445 29.89973,45.43112 8.87874,13.56666 20.42694,30.81138 25.66267,38.32161 5.23575,7.51021 9.14545,14.26021 8.68824,15 -0.51996,0.84131 -12.29357,1.34505 -31.43689,1.34505 h -30.60561 l -6.31571,-9.99449 c -7.93429,-12.55591 -24.00788,-38.44424 -33.80263,-54.443 -6.60176,-10.78332 -7.97954,-12.27845 -11.6535,-12.646 -4.00664,-0.40084 -4.61484,0.27563 -15.84639,17.62504 -13.28344,20.51896 -28.07264,43.79044 -33.76142,53.12512 l -3.85968,6.33333 h -30.61735 c -16.83954,0 -30.9418,-0.52498 -31.33836,-1.16664 z m 264.11919,0.27775 c -0.48889,-0.48888 -0.88889,-54.11541 -0.88889,-119.17006 0,-96.63295 0.32369,-118.54983 1.76856,-119.74896 2.16191,-1.79423 61.6968,-1.90537 65.03016,-0.12147 1.21766,0.65167 3.23974,3.75236 4.4935,6.89043 1.25375,3.13805 6.49655,15.30556 11.65064,27.03889 11.07355,25.20902 26.5711,60.65112 33.65528,76.96793 2.77824,6.39903 5.85139,12.29858 6.82922,13.1101 2.6567,2.20488 6.26384,0.99194 8.19054,-2.75414 3.77744,-7.34442 13.61923,-29.17073 16.82988,-37.32389 1.87707,-4.76666 5.14728,-12.26666 7.26714,-16.66666 2.11983,-4.4 5.83923,-12.5 8.26531,-18 2.42607,-5.5 6.9593,-15.7 10.07383,-22.66667 3.11453,-6.96667 6.72849,-15.57029 8.03101,-19.11917 1.58708,-4.32416 3.4216,-6.853 5.56171,-7.66667 3.9528,-1.50285 60.37439,-1.58292 62.72867,-0.0891 1.36933,0.8689 1.69633,24.62836 1.64605,119.60019 -0.0345,65.18374 -0.54709,119.00025 -1.13908,119.59223 -0.59199,0.59199 -12.43271,0.91271 -26.31272,0.71272 l -25.23637,-0.3635 -0.0663,-72.99955 c -0.0465,-51.21776 -0.50372,-73.43705 -1.53245,-74.46578 -2.47362,-2.47362 -6.58058,-0.0655 -8.80323,5.16185 -6.17413,14.52053 -18.90731,44.24677 -24.97416,58.30348 -3.79808,8.8 -9.27238,21.67487 -12.16513,28.61081 -2.89275,6.93595 -5.91717,13.40322 -6.72095,14.37171 -1.10126,1.32694 -5.60286,1.66929 -18.2663,1.38918 l -16.80484,-0.3717 -7.63416,-15.33333 c -4.1988,-8.43334 -10.12114,-21.63334 -13.16075,-29.33334 -3.03963,-7.7 -7.5056,-17.93841 -9.92439,-22.75202 -2.4188,-4.81362 -6.5794,-14.335 -9.2458,-21.15864 -7.14904,-18.29531 -10.37482,-22.2256 -14.69548,-17.90495 -1.8223,1.82231 -2.06317,10.58429 -2.0052,72.94335 0.0363,38.97974 0.0508,71.62226 0.0325,72.53893 -0.0256,1.2747 -6.09566,1.66666 -25.81117,1.66666 -14.17779,0 -26.17779,-0.4 -26.66667,-0.88889 z m 305.22955,-0.25279 c -0.97706,-1.58092 -1.12404,-237.6305 -0.14856,-238.60598 1.19167,-1.19168 50.83263,-1.40444 52.73931,-0.22604 1.32124,0.81656 1.70833,20.89431 1.81805,94.30073 0.11454,76.63751 0.46351,93.65379 1.95743,95.45379 1.62497,1.95789 7.78359,2.2274 58,2.53817 l 56.18198,0.34768 v 23.33333 23.33334 l -84.91522,0.34317 c -47.21629,0.19081 -85.23389,-0.17243 -85.63299,-0.81819 z M 1128.7135,346.59087 c 0.4789,-0.775 0.5391,-2.73097 0.1336,-4.34659 C 1128.0732,339.1608 1027.7262,241.63806 945.35707,163.91852 931.80347,151.13 912.25953,132.56666 901.92611,122.66666 861.25844,83.704778 828.09184,52.816695 824.74984,50.792364 c -3.1046,-1.88054 -3.6554,-1.895037 -4.77585,-0.125699 -0.77217,1.219366 -1.27448,43.696175 -1.28693,108.826305 -0.0197,103.18524 0.0705,107.11081 2.64625,115.17369 1.46667,4.59107 2.66667,8.90499 2.66667,9.58648 0,2.86167 10.83237,23.5666 15.35606,29.35153 8.75624,11.19749 28.42775,24.08319 46.64393,30.55379 l 10.66667,3.78892 115.58796,0.0263 c 79.7916,0.0181 115.8577,-0.41008 116.4589,-1.38281 z"
       id="path4522"
       inkscape:connector-curvature="0" />
  </g>
</svg>
